<?xml version="1.0" encoding="UTF-8"?>
<!DOCTYPE svg PUBLIC "-//W3C//DTD SVG 1.1//EN" "http://www.w3.org/Graphics/SVG/1.1/DTD/svg11.dtd">
<!-- Creator: CorelDRAW -->
<svg xmlns="http://www.w3.org/2000/svg" xml:space="preserve" width="2237px" height="2237px" version="1.1" shape-rendering="geometricPrecision" text-rendering="geometricPrecision" image-rendering="optimizeQuality" fill-rule="evenodd" clip-rule="evenodd"
viewBox="0 0 2236.07 2236.07"
 xmlns:xlink="http://www.w3.org/1999/xlink"
 xmlns:xodm="http://www.corel.com/coreldraw/odm/2003">
 <g id="Camada_x0020_1">
  <metadata id="CorelCorpID_0Corel-Layer"/>
  <g id="_2493310726112">
   <path fill="#41C8F2" fill-rule="nonzero" d="M871.62 230.9c163.59,0 316.61,44.98 446.91,123.01 59.41,-15.07 121.83,-23.12 186.21,-23.12 197.64,0 376.91,75.8 506.98,198.35 131.25,123.68 212.43,294.7 212.43,483.75 0,104.18 -24.69,202.95 -68.85,291.42 -39.35,78.83 -94.37,149.45 -161.31,208.32l28.08 242.26c4.58,40.13 -24.24,76.38 -64.37,80.96 -17.74,2.03 -34.72,-2.48 -48.55,-11.6l-236.94 -148.17c-22.01,4.99 -44.33,9.02 -66.91,12.03 -34.01,4.53 -67.61,6.88 -100.56,6.88 -16.67,0 -33.21,-0.56 -49.61,-1.62 -153.41,139.21 -358.46,224.32 -583.51,224.32 -100.55,0 -201.3,-17.44 -295.94,-51.46l-223.83 129.23c-34.92,20.07 -79.49,8.03 -99.56,-26.89 -5.78,-10.06 -8.89,-20.92 -9.56,-31.77l-0.17 0.01 -19.76 -309.51c-135.49,-152.83 -210.88,-348.55 -210.88,-553 0,-233.01 96.45,-443.95 252.38,-596.65 155.68,-152.45 370.42,-246.75 607.32,-246.75zm426.69 804.41l221.49 0c41.48,0 75.41,33.94 75.41,75.42 0,41.48 -33.93,75.42 -75.41,75.42l-221.49 0c-41.48,0 -75.42,-33.94 -75.42,-75.42 0,-41.48 33.94,-75.42 75.42,-75.42zm-0.24 -215.61l440.8 0c41.48,0 75.42,33.94 75.42,75.42 0,41.48 -33.94,75.41 -75.42,75.41l-440.8 0c-41.48,0 -75.42,-33.93 -75.42,-75.41 0,-41.48 33.94,-75.42 75.42,-75.42zm-161.54 -392.77c-81.86,-31.96 -171.25,-49.55 -264.91,-49.55 -197.45,0 -375.94,78.12 -504.9,204.41 -128.71,126.04 -208.32,300.17 -208.32,492.51 0,89.77 17.15,175.2 48.39,253.35 32.39,81.01 79.9,154.72 139.14,217.81 12.09,12.14 19.98,28.54 21.14,46.98l13.91 217.8 147.05 -84.9c19.58,-13.48 45.33,-17.18 69.01,-7.59 43.01,17.54 87.86,31.05 134.05,40.06 45.07,8.78 92.05,13.4 140.53,13.4 145.42,0 280.54,-42.39 393.18,-115.17 -101.35,-34.04 -192.32,-89 -267.04,-159.41 -131.25,-123.67 -212.43,-294.69 -212.43,-483.74 0,-189.05 81.18,-360.07 212.43,-483.75 41.57,-39.16 88.16,-73.54 138.77,-102.21zm775.05 208.64c-103.8,-97.81 -247.61,-158.3 -406.84,-158.3 -159.23,0 -303.04,60.49 -406.84,158.3 -102.62,96.69 -166.09,230.1 -166.09,377.32 0,147.21 63.47,280.62 166.09,377.31 103.8,97.81 247.61,158.31 406.84,158.31 28.91,0 56.15,-1.77 81.68,-5.17 25.62,-3.41 50.54,-8.36 74.66,-14.73 20.08,-6.89 42.97,-5.03 62.39,7.06l135.77 84.9 -15.11 -130.38 0.16 -0.02c-2.76,-24.38 6.84,-49.58 27.59,-65.79 64.12,-50.07 116.44,-113.27 152.39,-185.3 34.25,-68.61 53.4,-145.28 53.4,-226.19 0,-147.22 -63.47,-280.63 -166.09,-377.32z"/>
   <rect fill="none" width="2236.07" height="2236.07"/>
  </g>
 </g>
</svg>
